<svg width="481" height="373" viewBox="0 0 481 373" fill="none" xmlns="http://www.w3.org/2000/svg">
<g clip-path="url(#clip0_22_1385)">
<path d="M62.7513 164.137C44.8465 156.624 30.4935 142.558 22.6304 124.818C18.2311 114.77 16.0832 103.872 14.8603 92.9726C13.6605 82.2791 13.4155 70.999 18.0223 61.2724C20.5445 55.9468 24.4048 51.3648 29.2269 47.9729C34.049 44.581 39.6684 42.4949 45.5376 41.9179C51.4068 41.3409 57.3255 42.2926 62.7169 44.6804C68.1084 47.0681 72.7887 50.8105 76.3018 55.5427C79.3255 59.6158 81.4515 64.5032 81.5057 69.5739C81.6195 80.2101 73.0586 88.7459 69.3029 98.699C65.4218 108.985 66.8207 120.381 67.4804 131.353C68.1402 142.325 67.722 154.22 61.0577 162.967" fill="#F2F2F2"/>
<path d="M383.871 298.629C402.779 294.205 419.28 282.727 429.994 266.546C436.01 257.371 439.947 246.985 442.972 236.441C445.941 226.098 448.065 215.016 445.147 204.658C443.549 198.987 440.508 193.826 436.32 189.678C432.132 185.53 426.939 182.537 421.249 180.99C415.558 179.444 409.563 179.396 403.849 180.852C398.134 182.308 392.895 185.218 388.641 189.298C384.979 192.811 382.067 197.275 381.167 202.266C379.279 212.734 386.295 222.577 388.336 233.016C390.446 243.805 387.164 254.808 384.682 265.517C382.199 276.225 380.626 288.024 385.736 297.758" fill="#F2F2F2"/>
<path d="M239.668 281.549C212.716 281.635 186.494 272.805 165.093 256.439C144.139 240.446 128.83 218.199 121.388 192.927L122.454 192.617C137.504 244.327 185.705 280.441 239.668 280.441C255.803 280.471 271.782 277.286 286.67 271.072L287.097 272.095C272.074 278.366 255.95 281.58 239.668 281.549Z" fill="#E6E6E6"/>
<path d="M356.176 122.067C340.167 70.9342 293.346 36.5792 239.668 36.5792C223.762 36.5504 208.005 39.6454 193.294 45.6883L192.872 44.6632C212.551 36.6118 233.979 33.7799 255.077 36.4422C276.175 39.1045 296.225 47.1707 313.282 59.8577C334.041 75.3939 349.41 97.0318 357.235 121.736L356.176 122.067Z" fill="#E6E6E6"/>
<path d="M389.46 320.345C338.985 320.345 297.92 279.322 297.92 228.897C297.92 178.473 338.985 137.449 389.46 137.449C439.935 137.449 481 178.473 481 228.897C481 279.322 439.935 320.345 389.46 320.345ZM389.46 138.558C339.597 138.558 299.03 179.084 299.03 228.897C299.03 278.711 339.597 319.237 389.46 319.237C439.324 319.237 479.89 278.711 479.89 228.897C479.89 179.084 439.324 138.558 389.46 138.558Z" fill="#3F3D56"/>
<path d="M91.5398 182.896C41.0645 182.896 0 141.873 0 91.4481C0 41.0234 41.0645 0 91.5398 0C142.015 0 183.08 41.0234 183.08 91.4481C183.08 141.873 142.015 182.896 91.5398 182.896ZM91.5398 1.10846C41.6764 1.10846 1.10957 41.6347 1.10957 91.4481C1.10957 141.261 41.6764 181.788 91.5398 181.788C141.403 181.788 181.97 141.261 181.97 91.4481C181.97 41.6347 141.403 1.10846 91.5398 1.10846Z" fill="#3F3D56"/>
<path d="M84.4224 91.9622L76.3389 107.646L84.3205 112.217C84.3205 112.217 89.7959 94.5998 89.9571 93.9312C90.7828 93.5941 91.4865 93.0146 91.9753 92.2693C92.464 91.5239 92.7148 90.6479 92.6943 89.7571C92.6739 88.8663 92.3832 88.0027 91.8607 87.2806C91.3383 86.5584 90.6087 86.0117 89.7685 85.7128C88.9282 85.4139 88.017 85.3768 87.1552 85.6065C86.2934 85.8362 85.5218 86.3219 84.9423 86.9993C84.3629 87.6766 84.0029 88.5138 83.9101 89.4C83.8172 90.2862 83.9959 91.1796 84.4224 91.9622Z" fill="#A0616A"/>
<path d="M42.938 94.0955C46.5438 107.442 59.5045 115.918 70.2671 126.081C71.5924 126.545 73.0001 126.728 74.4003 126.618C75.8005 126.509 77.1623 126.108 78.3987 125.442C79.6351 124.777 80.7189 123.861 81.5808 122.753C82.4426 121.645 83.0636 120.37 83.404 119.008L87.0314 104.827L77.8117 104.58L73.9962 108.723L61.6506 99.9346L42.938 94.0955Z" fill="#3F3D56"/>
<path d="M375.851 243.107C377.417 243.209 378.88 243.918 379.931 245.082C380.981 246.246 381.536 247.773 381.476 249.339C381.459 249.657 381.415 249.973 381.346 250.284L399.122 261.472L389.295 265.814L373.921 254.525C372.652 254.137 371.548 253.342 370.78 252.261C370.011 251.181 369.623 249.877 369.674 248.553C369.711 247.8 369.896 247.062 370.218 246.38C370.54 245.698 370.994 245.086 371.553 244.58C372.112 244.073 372.765 243.681 373.476 243.427C374.186 243.173 374.94 243.061 375.694 243.097C375.746 243.1 375.799 243.103 375.851 243.107Z" fill="#FFB6B6"/>
<path d="M392.993 256.387L388.588 265.468L406.007 276.666C407.246 277.47 408.671 277.944 410.145 278.042C411.62 278.141 413.095 277.861 414.43 277.23C416.054 276.453 417.382 275.171 418.212 273.575C419.043 271.979 419.332 270.157 419.035 268.383L413.383 236.147C413.003 233.891 411.773 231.866 409.945 230.489C408.117 229.111 405.83 228.486 403.554 228.742C401.316 228.986 399.266 230.109 397.857 231.863C396.447 233.617 395.793 235.859 396.037 238.095C396.047 238.182 396.058 238.27 396.07 238.357C396.113 238.666 396.172 238.974 396.248 239.277L402.419 262.203L392.993 256.387Z" fill="#0185FF"/>
<path d="M377.161 260.068L370.602 243.159C370.378 242.58 370.393 241.937 370.644 241.369C370.895 240.801 371.36 240.356 371.939 240.132L375.628 238.703C376.208 238.48 376.852 238.495 377.42 238.745C377.988 238.996 378.434 239.461 378.659 240.04L385.219 256.949C385.443 257.528 385.427 258.171 385.177 258.739C384.926 259.307 384.46 259.752 383.881 259.976L380.192 261.405C379.613 261.628 378.968 261.613 378.4 261.363C377.832 261.112 377.386 260.647 377.161 260.068Z" fill="#3F3D56"/>
<path d="M372.706 240.827C372.394 240.948 372.143 241.188 372.007 241.494C371.872 241.8 371.864 242.147 371.985 242.459L378.544 259.368C378.666 259.679 378.906 259.93 379.212 260.065C379.518 260.2 379.865 260.208 380.178 260.088L383.867 258.66C384.179 258.538 384.43 258.299 384.565 257.993C384.7 257.687 384.708 257.34 384.587 257.028L378.028 240.119C377.906 239.807 377.666 239.556 377.36 239.421C377.054 239.286 376.707 239.278 376.395 239.399L372.706 240.827Z" fill="#0185FF"/>
<path d="M391.755 295.351H416.667V270.464H391.755V295.351Z" fill="#FFB8B8"/>
<path d="M332.677 343.758L323.163 340.56L317.865 366.432L324.312 368.598L332.677 343.758Z" fill="#FFB6B6"/>
<path d="M349.55 338.835L339.781 341.143L348.968 365.904L355.587 364.34L349.55 338.835Z" fill="#FFB6B6"/>
<path d="M415.773 301.853C420.766 335.107 354.275 315.447 354.275 315.447L333.427 344.177L321.221 341.961C321.221 341.961 326.713 324.713 336.521 301.591C340.877 291.323 390.336 293.832 390.336 293.832L391.363 285.78L419.657 285.226L415.773 301.853Z" fill="#2F2E41"/>
<path d="M352.176 308.312L334.067 308.729C336.97 333.673 339.529 343.623 339.529 343.623L350.07 340.298L352.176 308.312Z" fill="#2F2E41"/>
<path d="M401.542 230.024L406.556 223.585L413.709 223.275L414.423 229.331L417.967 230.963C421.505 244.394 422.052 258.437 419.568 272.102C419.093 272.549 418.746 273.114 418.562 273.74C418.379 274.365 418.366 275.028 418.525 275.66L418.755 276.575L418.733 276.609C417.979 277.798 417.723 279.235 418.021 280.611L419.713 283.615C420.321 284.696 420.685 285.895 420.782 287.131C420.878 288.366 420.704 289.608 420.271 290.769C419.838 291.93 419.158 292.984 418.276 293.856C417.395 294.728 416.334 295.397 415.167 295.818C404.764 299.585 395.011 300.989 387.796 290.417L385.527 253.577L401.542 230.024Z" fill="#0185FF"/>
<path d="M406.795 225.294C414.099 225.294 420.02 219.379 420.02 212.083C420.02 204.786 414.099 198.871 406.795 198.871C399.491 198.871 393.57 204.786 393.57 212.083C393.57 219.379 399.491 225.294 406.795 225.294Z" fill="#FFB8B8"/>
<path d="M413.434 196.156C419.033 196.264 423.475 201.453 423.354 207.746C427.497 212.065 426.127 217.351 422.665 223.003C416.331 223.737 414.852 224.043 409.298 226.306L408.566 222.89L406.907 227.339C405.496 227.989 404.095 228.703 402.704 229.48C401.705 224.902 401.953 220.452 404.638 216.575C407.024 213.132 401.218 209.044 397.066 209.621L397.127 206.459L396.084 209.603C394.466 210.791 392.675 210.361 390.84 209.502C387.863 194.045 410.912 189.818 413.434 196.156Z" fill="#2F2E41"/>
<path d="M327.242 372.974L323.003 372.421L322.769 368.324L320.309 372.069L309.066 370.602C308.528 370.532 308.025 370.291 307.633 369.916C307.241 369.54 306.979 369.049 306.886 368.514C306.792 367.979 306.873 367.428 307.115 366.942C307.357 366.456 307.749 366.06 308.232 365.812L318.02 360.79L318.548 356.748L327.918 358.543L327.242 372.974Z" fill="#2F2E41"/>
<path d="M358.02 370.642L353.78 371.187L352.508 367.285L351.085 371.533L339.839 372.979C339.3 373.048 338.753 372.944 338.278 372.68C337.803 372.417 337.424 372.009 337.198 371.515C336.971 371.022 336.908 370.469 337.018 369.937C337.128 369.406 337.406 368.923 337.81 368.56L345.992 361.21L345.471 357.167L354.989 356.516L358.02 370.642Z" fill="#2F2E41"/>
<path d="M377.446 246.198C379.012 246.3 380.475 247.009 381.526 248.172C382.576 249.336 383.131 250.864 383.071 252.43C383.054 252.748 383.01 253.064 382.941 253.375L400.717 264.563L390.889 268.905L375.516 257.615C374.247 257.228 373.143 256.432 372.374 255.352C371.606 254.272 371.218 252.968 371.269 251.644C371.306 250.891 371.491 250.153 371.813 249.471C372.135 248.789 372.589 248.177 373.148 247.671C373.707 247.164 374.36 246.772 375.071 246.518C375.781 246.263 376.535 246.151 377.289 246.188C377.341 246.19 377.394 246.194 377.446 246.198Z" fill="#FFB6B6"/>
<path d="M394.588 259.478L390.182 268.559L407.602 279.757C408.841 280.561 410.266 281.034 411.74 281.133C413.214 281.232 414.689 280.952 416.025 280.321C417.649 279.544 418.976 278.261 419.807 276.666C420.637 275.07 420.926 273.248 420.63 271.474L414.978 239.237C414.598 236.982 413.368 234.957 411.54 233.579C409.712 232.202 407.424 231.577 405.149 231.832C404.041 231.953 402.967 232.291 401.99 232.827C401.012 233.363 400.15 234.085 399.452 234.954C398.754 235.822 398.234 236.82 397.921 237.889C397.609 238.958 397.511 240.078 397.632 241.186C397.642 241.273 397.653 241.36 397.665 241.448C397.708 241.757 397.767 242.065 397.843 242.368L404.013 265.294L394.588 259.478Z" fill="#0185FF"/>
<path d="M61.2567 257.726L66.8445 260.244L79.2262 239.911L70.9794 236.195L61.2567 257.726Z" fill="#A0616A"/>
<path d="M58.4302 263.46L75.6128 271.204L75.7109 270.987C76.511 269.215 76.5738 267.198 75.8855 265.38C75.1972 263.562 73.8141 262.091 72.0404 261.291L69.9757 257.498L63.0453 257.237L61.5454 256.562L58.4302 263.46Z" fill="#2F2E41"/>
<path d="M130.463 230.075L136.364 228.42L132.783 204.891L124.072 207.334L130.463 230.075Z" fill="#A0616A"/>
<path d="M131.983 236.284L150.132 231.194L150.068 230.965C149.542 229.093 148.293 227.507 146.596 226.555C144.9 225.603 142.894 225.364 141.021 225.889L136.999 224.306L131.52 228.553L129.936 228.998L131.983 236.284Z" fill="#2F2E41"/>
<path d="M41.142 161.324C41.2929 165.685 50.5788 177.453 55.4625 179.141C56.2927 179.428 56.7778 179.586 56.7778 179.586L58.4776 179.073L79.0618 172.851C82.6661 174.969 93.4182 176.046 102.241 176.585C109.262 177.012 113.176 180.679 113.176 180.679C115.248 196.418 121.22 207.892 128.107 221.995L136.373 220.559L128.564 168.03C128.396 166.895 127.897 165.835 127.13 164.982C126.364 164.128 125.363 163.518 124.253 163.228L68.0833 148.55C68.0833 148.55 64.9856 147.99 58.4524 151.139C47.6968 156.323 41.0342 158.15 41.142 161.324Z" fill="#2F2E41"/>
<path d="M51.875 160.48C49.9912 164.417 52.7828 179.14 56.3333 182.891L57.2758 183.532L57.5945 183.698C59.7243 190.895 82.5805 211.945 82.5805 211.945C74.8601 221.77 67.98 233.757 64.91 247.187L73.8371 250.446L98.9658 212.97C99.624 211.988 99.9694 210.83 99.9564 209.649C99.9435 208.468 99.5729 207.318 98.8933 206.351L88.6418 191.763L71.9374 159.438C60.0011 159.071 53.2473 157.615 51.875 160.48Z" fill="#2F2E41"/>
<path d="M41.4779 163.038C41.4503 163.038 40.796 161.327 40.7827 161.323C40.5602 161.261 37.5484 160.964 38.2258 155.983L39.0923 150.501L38.2463 145.66L36.8233 144.239L39.1103 141.954L37.7088 131.592L37.1707 110.846C35.8201 103.72 36.1728 97.2021 42.7153 94.0635L50.2158 87.1134L58.7507 87.0103L68.4337 92.7449L73.1251 102.088L74.9448 127.41L76.3035 130.577L76.1871 130.682C76.1781 130.69 75.2729 131.508 74.8663 131.958C74.6693 132.237 75.0389 134.324 75.4952 136.096L76.0803 140.47L74.6057 141.522L76.523 143.785L81.7498 152.611L81.4366 152.533C81.0838 152.445 77.7968 157.374 41.7195 162.855C41.553 162.881 41.5471 163.038 41.4779 163.038Z" fill="#3F3D56"/>
<path d="M82.7889 108.237L79.8022 106.68C79.3336 106.435 78.9815 106.015 78.8229 105.511C78.6644 105.007 78.7125 104.46 78.9566 103.992L86.1072 90.3018C86.3523 89.8337 86.7734 89.4818 87.2779 89.3234C87.7824 89.1651 88.3292 89.2131 88.7983 89.457L91.7849 91.0139C92.2535 91.2588 92.6057 91.6794 92.7643 92.1834C92.9228 92.6874 92.8747 93.2336 92.6306 93.7023L85.48 107.392C85.2348 107.86 84.8138 108.212 84.3093 108.37C83.8048 108.529 83.258 108.481 82.7889 108.237Z" fill="#3F3D56"/>
<path d="M88.0841 89.973C87.8313 89.8415 87.5367 89.8157 87.2648 89.901C86.9929 89.9863 86.766 90.1759 86.6339 90.4282L79.4833 104.118C79.3518 104.371 79.3259 104.665 79.4113 104.937C79.4967 105.208 79.6865 105.435 79.939 105.567L82.9257 107.124C83.1785 107.255 83.4731 107.281 83.745 107.196C84.0169 107.11 84.2437 106.921 84.3759 106.668L91.5265 92.9786C91.658 92.726 91.6839 92.4317 91.5985 92.1601C91.513 91.8885 91.3233 91.6618 91.0708 91.5298L88.0841 89.973Z" fill="#0185FF"/>
<path d="M56.4065 85.1415C63.146 85.1415 68.6095 79.6835 68.6095 72.9508C68.6095 66.218 63.146 60.76 56.4065 60.76C49.667 60.76 44.2035 66.218 44.2035 72.9508C44.2035 79.6835 49.667 85.1415 56.4065 85.1415Z" fill="#A0616A"/>
<path d="M50.4047 80.8027C49.8697 80.3776 49.2023 80.1537 48.5189 80.17C48.3069 80.2048 48.1047 80.2843 47.9257 80.403C47.7467 80.5217 47.595 80.6771 47.4807 80.8588C47.4171 80.9386 47.3346 81.0014 47.2406 81.0413C47.1467 81.0813 47.0442 81.0971 46.9425 81.0875C45.6404 81.1349 42.8651 78.7218 42.6753 74.0656C42.5851 71.8527 41.2598 68.1083 43.3696 66.0803C43.511 65.2619 45.1585 56.8029 52.5849 56.5698C60.188 56.3284 65.2492 57.8542 66.465 60.7489C67.3093 63.0472 67.9513 65.4147 68.3834 67.8245L68.6384 69.2573L68.0427 67.9293C68.0314 67.9044 66.9449 65.5267 64.93 64.7335C64.8973 65.1205 64.7988 65.4991 64.6387 65.853C63.9813 67.2763 62.324 68.2052 60.4164 68.2196C59.0984 68.179 57.7986 67.8998 56.5803 67.3955C56.7183 67.5944 56.7957 67.8289 56.8033 68.0707C56.8109 68.3125 56.7484 68.5514 56.6232 68.7585C56.498 68.9656 56.3155 69.1321 56.0977 69.238C55.8799 69.3439 55.6361 69.3845 55.3957 69.3551L55.0431 69.3113C54.9319 69.2975 54.8195 69.3229 54.7251 69.3832C54.6308 69.4435 54.5606 69.5349 54.5267 69.6416C54.4928 69.7482 54.4973 69.8633 54.5395 69.967C54.5817 70.0706 54.6588 70.1562 54.7576 70.209L55.0681 70.3748L54.6912 70.5569C53.1742 71.2331 51.9241 72.3924 51.1366 73.8535C50.3491 75.3147 50.0684 76.9954 50.3385 78.6329L50.7779 81.1021L50.4047 80.8027Z" fill="#2F2E41"/>
<path d="M243.612 269.178C243.279 269.194 242.948 269.106 242.666 268.927C242.384 268.749 242.163 268.488 242.034 268.18C241.905 267.872 241.874 267.532 241.945 267.206C242.017 266.88 242.186 266.584 242.431 266.357L242.543 265.914C242.528 265.878 242.514 265.843 242.499 265.807C242.163 265.014 241.599 264.338 240.879 263.863C240.16 263.389 239.316 263.137 238.453 263.14C237.591 263.144 236.749 263.401 236.033 263.881C235.316 264.361 234.758 265.041 234.428 265.837C233.108 269.013 231.427 272.195 231.013 275.553C230.831 277.037 230.908 278.542 231.241 280C228.14 273.244 226.53 265.9 226.52 258.468C226.519 256.603 226.623 254.739 226.831 252.886C227.002 251.366 227.24 249.858 227.545 248.36C229.207 240.232 232.774 232.615 237.955 226.133C240.463 224.766 242.491 222.664 243.766 220.11C244.228 219.192 244.554 218.212 244.735 217.201C244.452 217.238 244.165 217.261 243.882 217.28C243.794 217.284 243.701 217.289 243.613 217.294L243.58 217.295C243.269 217.309 242.96 217.233 242.692 217.076C242.423 216.919 242.206 216.688 242.066 216.41C241.926 216.132 241.869 215.82 241.902 215.511C241.936 215.202 242.058 214.909 242.254 214.668C242.376 214.518 242.498 214.368 242.62 214.218C242.806 213.986 242.996 213.759 243.181 213.527C243.203 213.505 243.223 213.482 243.242 213.458C243.455 213.194 243.668 212.934 243.882 212.67C243.492 212.067 242.969 211.561 242.351 211.193C240.214 209.942 237.264 210.808 235.72 212.74C234.171 214.672 233.879 217.382 234.417 219.795C234.946 221.849 235.821 223.798 237.005 225.558C236.889 225.706 236.768 225.85 236.652 225.998C234.533 228.721 232.686 231.644 231.138 234.726C231.514 231.273 231.065 227.78 229.826 224.534C228.571 221.509 226.219 218.962 224.147 216.347C221.658 213.206 216.556 214.577 216.117 218.558C216.113 218.597 216.109 218.636 216.105 218.674C216.412 218.848 216.714 219.032 217.008 219.226C217.379 219.473 217.666 219.827 217.831 220.239C217.997 220.652 218.035 221.105 217.938 221.54C217.842 221.974 217.617 222.369 217.292 222.673C216.967 222.977 216.557 223.176 216.117 223.244L216.072 223.251C216.182 224.359 216.376 225.457 216.652 226.536C217.452 229.547 218.867 232.36 220.807 234.799C222.747 237.239 225.17 239.251 227.925 240.711C228.106 240.804 228.282 240.897 228.463 240.985C226.907 245.389 225.931 249.977 225.56 254.632C225.35 257.379 225.362 260.138 225.597 262.883L225.583 262.786C224.99 259.733 223.36 256.98 220.969 254.989C217.418 252.075 212.402 251.002 208.571 248.66C208.164 248.399 207.691 248.259 207.207 248.258C206.723 248.257 206.249 248.394 205.841 248.653C205.432 248.912 205.107 249.283 204.902 249.721C204.698 250.159 204.623 250.646 204.686 251.125C204.691 251.159 204.697 251.193 204.702 251.227C205.273 251.46 205.829 251.727 206.367 252.029C206.674 252.202 206.976 252.386 207.27 252.581C207.64 252.828 207.927 253.181 208.093 253.594C208.259 254.007 208.296 254.46 208.2 254.894C208.104 255.329 207.878 255.724 207.554 256.028C207.229 256.332 206.819 256.531 206.379 256.599L206.334 256.606C206.302 256.61 206.274 256.615 206.241 256.62C207.217 258.947 208.586 261.089 210.29 262.952C212.394 265.208 214.937 267.01 217.763 268.249C220.589 269.487 223.638 270.136 226.724 270.156H226.729C227.566 273.793 228.78 277.332 230.35 280.718H243.288C243.335 280.575 243.376 280.426 243.418 280.283C242.22 280.358 241.018 280.286 239.838 280.07C240.798 278.893 241.758 277.707 242.718 276.53C242.739 276.508 242.759 276.485 242.778 276.461C243.265 275.859 243.757 275.261 244.243 274.659L244.244 274.658C244.27 272.812 244.057 270.97 243.612 269.178Z" fill="#E6E6E6"/>
<path d="M305.803 68.7618C306.053 68.9835 306.228 69.2765 306.306 69.6012C306.383 69.9258 306.359 70.2664 306.236 70.5768C306.113 70.8871 305.898 71.1523 305.619 71.3363C305.34 71.5203 305.012 71.6142 304.678 71.6054L304.288 71.8451C304.274 71.8808 304.259 71.9165 304.245 71.9523C303.932 72.7548 303.863 73.632 304.047 74.4736C304.231 75.3153 304.659 76.0839 305.279 76.6828C305.899 77.2818 306.682 77.6845 307.53 77.8403C308.378 77.996 309.254 77.898 310.046 77.5584C313.21 76.2043 316.637 75.0978 319.279 72.9814C320.447 72.0455 321.443 70.9143 322.224 69.6382C319.724 76.6384 315.746 83.0198 310.561 88.3497C309.258 89.6858 307.882 90.9481 306.438 92.1307C305.254 93.0992 304.029 94.0136 302.764 94.874C295.896 99.5355 288.019 102.503 279.78 103.533C277.029 102.763 274.108 102.854 271.411 103.794C270.439 104.129 269.521 104.603 268.684 105.202C268.913 105.372 269.135 105.556 269.351 105.74C269.417 105.798 269.487 105.86 269.553 105.918L269.578 105.94C269.81 106.147 269.978 106.416 270.06 106.716C270.143 107.016 270.137 107.333 270.043 107.629C269.95 107.926 269.772 108.189 269.533 108.387C269.293 108.585 269.001 108.71 268.692 108.746C268.499 108.768 268.307 108.79 268.114 108.813C267.82 108.849 267.525 108.879 267.23 108.916C267.2 108.916 267.169 108.919 267.139 108.923C266.801 108.964 266.467 109.001 266.13 109.041C265.987 109.745 266.009 110.472 266.194 111.166C266.851 113.553 269.568 114.989 272.023 114.682C274.482 114.379 276.585 112.642 277.886 110.538C278.942 108.699 279.677 106.693 280.059 104.607C280.246 104.582 280.433 104.563 280.619 104.537C284.039 104.066 287.404 103.26 290.666 102.132C287.984 104.343 285.865 107.157 284.485 110.345C283.27 113.387 283.175 116.851 282.832 120.169C282.419 124.153 287.031 126.729 290.127 124.184C290.157 124.159 290.187 124.134 290.217 124.11C290.118 123.771 290.031 123.429 289.955 123.084C289.863 122.649 289.904 122.196 290.074 121.785C290.243 121.373 290.533 121.023 290.906 120.779C291.278 120.535 291.716 120.409 292.161 120.418C292.606 120.427 293.038 120.57 293.401 120.828L293.438 120.854C294.133 119.985 294.762 119.063 295.318 118.098C296.848 115.384 297.801 112.383 298.116 109.283C298.431 106.184 298.102 103.053 297.149 100.086C297.084 99.8937 297.022 99.7044 296.954 99.5153C301.145 97.4459 305.049 94.841 308.568 91.7659C310.638 89.9455 312.557 87.9609 314.306 85.8315L314.248 85.9109C312.541 88.5104 311.784 91.619 312.105 94.7115C312.612 99.2741 315.455 103.54 316.562 107.889C316.671 108.36 316.912 108.789 317.258 109.128C317.604 109.466 318.039 109.698 318.512 109.797C318.986 109.896 319.478 109.858 319.93 109.687C320.383 109.516 320.777 109.22 321.066 108.832C321.086 108.804 321.107 108.776 321.127 108.748C320.88 108.183 320.669 107.604 320.494 107.013C320.395 106.675 320.308 106.333 320.233 105.988C320.14 105.553 320.182 105.1 320.351 104.688C320.521 104.277 320.811 103.927 321.183 103.683C321.556 103.439 321.993 103.313 322.438 103.322C322.883 103.33 323.316 103.473 323.678 103.732L323.715 103.758C323.742 103.778 323.765 103.794 323.791 103.813C324.719 101.466 325.235 98.9769 325.317 96.4551C325.386 93.3729 324.824 90.3091 323.666 87.4516C322.507 84.594 320.777 82.003 318.581 79.8372L318.577 79.834C320.518 76.6456 322.122 73.2644 323.363 69.7447L314.098 60.7236C313.964 60.7941 313.831 60.8712 313.701 60.9449C314.611 61.7261 315.422 62.6156 316.115 63.5937C314.606 63.7671 313.09 63.9471 311.58 64.1204C311.55 64.1212 311.519 64.1238 311.489 64.1281C310.719 64.2199 309.95 64.3051 309.18 64.3969L309.18 64.3972C307.871 65.7011 306.736 67.1684 305.803 68.7618Z" fill="#E6E6E6"/>
<path d="M82.7537 104.94L71.0868 118.182L77.7122 124.559C77.7122 124.559 87.3215 108.807 87.641 108.198C88.524 108.072 89.3479 107.681 90.0038 107.077C90.6597 106.473 91.1166 105.685 91.3141 104.816C91.5117 103.947 91.4405 103.039 91.1101 102.211C90.7796 101.384 90.2054 100.676 89.4635 100.181C88.7216 99.6866 87.8468 99.4287 86.955 99.4416C86.0632 99.4545 85.1963 99.7376 84.469 100.253C83.7417 100.769 83.1884 101.493 82.8821 102.33C82.5758 103.167 82.531 104.077 82.7537 104.94Z" fill="#A0616A"/>
<path d="M42.0002 96.906C42.2405 110.728 52.7417 122.105 60.6997 134.582C61.8716 135.355 63.1922 135.876 64.5769 136.11C65.9617 136.344 67.3802 136.288 68.7417 135.943C70.1033 135.599 71.3779 134.974 72.4841 134.11C73.5903 133.245 74.5037 132.16 75.166 130.922L82.1447 118.052L73.2633 115.568L68.552 118.656L58.7235 107.126L42.0002 96.906Z" fill="#3F3D56"/>
</g>
<defs>
<clipPath id="clip0_22_1385">
<rect width="481" height="373" fill="white"/>
</clipPath>
</defs>
</svg>
