<svg width="100" height="100" viewBox="0 0 100 100" fill="none" xmlns="http://www.w3.org/2000/svg">
<g filter="url(#filter0_d_22_711)">
<path d="M70.4819 68.1231C73.8663 71.2191 74.1266 76.5616 70.318 79.1229C66.7252 81.5392 62.6999 83.2954 58.4312 84.2818C51.4425 85.8968 44.127 85.3733 37.4421 82.78C30.7572 80.1866 25.0146 75.6441 20.9659 69.7473C16.9172 63.8504 14.7512 56.8739 14.7513 49.731C14.7515 42.5881 16.9178 35.6117 20.9667 29.715C25.0156 23.8182 30.7584 19.276 37.4434 16.6829C44.1284 14.0898 51.444 13.5666 58.4326 15.1819C62.7013 16.1685 66.7265 17.9248 70.3191 20.3412C74.1276 22.9027 73.8672 28.2452 70.4826 31.341V31.341C67.098 34.4368 61.8328 33.9847 57.5806 32.2479C56.6407 31.864 55.6672 31.5542 54.6688 31.3235C50.9453 30.4628 47.0475 30.7416 43.4857 32.1232C39.9239 33.5048 36.8641 35.9249 34.7069 39.0667C32.5496 42.2085 31.3954 45.9256 31.3953 49.7313C31.3952 53.5371 32.5493 57.2542 34.7065 60.3961C36.8636 63.5379 39.9233 65.9581 43.485 67.3399C47.0467 68.7216 50.9445 69.0005 54.6681 68.1401C55.6665 67.9094 56.64 67.5996 57.5799 67.2157C61.8322 65.4791 67.0974 65.0272 70.4819 68.1231V68.1231Z" fill="#9DFFD0"/>
</g>
<path d="M18.3509 34.5169C14.1819 42.1446 13.653 49.1381 15.6249 57.5971C17.5969 66.0561 22.6173 73.5009 29.7347 78.5206C36.852 83.5403 46.3754 85.8362 55.0448 84.8823C60.7624 84.2531 65.8484 82.4751 70.3256 79.4882C74.2535 76.8676 73.8972 71.3392 70.3637 68.212V68.212V68.212C66.8457 64.9042 61.53 65.7307 56.9801 67.3722C55.7912 67.8011 54.3583 68.1879 52.5511 68.5667C48.3376 69.0304 45.586 69.2384 42.4313 69.0022C41.8151 68.956 41.2015 68.9219 40.587 68.8576C38.2615 68.6142 31.9489 67.4444 26.5447 61.8277C16.9411 51.8464 16.1297 38.581 18.3509 34.5169Z" fill="#0185FF"/>
<defs>
<filter id="filter0_d_22_711" x="14.7513" y="14.2632" width="66.347" height="78.937" filterUnits="userSpaceOnUse" color-interpolation-filters="sRGB">
<feFlood flood-opacity="0" result="BackgroundImageFix"/>
<feColorMatrix in="SourceAlpha" type="matrix" values="0 0 0 0 0 0 0 0 0 0 0 0 0 0 0 0 0 0 127 0" result="hardAlpha"/>
<feOffset dx="4" dy="4"/>
<feGaussianBlur stdDeviation="2"/>
<feComposite in2="hardAlpha" operator="out"/>
<feColorMatrix type="matrix" values="0 0 0 0 0 0 0 0 0 0 0 0 0 0 0 0 0 0 0.25 0"/>
<feBlend mode="normal" in2="BackgroundImageFix" result="effect1_dropShadow_22_711"/>
<feBlend mode="normal" in="SourceGraphic" in2="effect1_dropShadow_22_711" result="shape"/>
</filter>
</defs>
</svg>
