<svg width="751" height="573" viewBox="0 0 751 573" fill="none" xmlns="http://www.w3.org/2000/svg">
<g clip-path="url(#clip0_22_953)">
<path d="M437.456 100.882C451.531 100.882 462.941 88.9281 462.941 74.1817C462.941 59.4353 451.531 47.481 437.456 47.481C423.381 47.481 411.971 59.4353 411.971 74.1817C411.971 88.9281 423.381 100.882 437.456 100.882Z" fill="#F2F2F2"/>
<path d="M635.153 497.152C673.034 466.923 691.127 416.127 679.8 367.67C679.518 366.466 679.221 365.264 678.909 364.066C671.399 335.302 652.821 307.965 625.744 298.775C603.009 291.058 578.193 296.992 554.474 293.923C507.914 287.899 471.816 248.429 446.417 207.104C421.018 165.778 401.498 119.52 367.748 85.3796C312.116 29.1043 221.368 16.9881 152.393 53.6192C83.418 90.2504 39.4817 171.52 41.3555 252.514C43.2293 333.509 89.1234 410.946 155.773 452.031C180.257 467.124 208.576 477.817 236.759 474.075C261.212 470.829 283.432 457.063 307.77 452.976C346.036 446.55 384.058 464.676 417.156 485.799C450.253 506.922 482.222 531.959 519.833 541.752C556.352 551.26 601.597 523.93 635.153 497.152Z" fill="#F2F2F2"/>
<path d="M580.727 55.32C579.897 54.74 579.057 54.19 578.227 53.63C554.223 37.5458 528.494 24.4791 501.573 14.7L495.33 104.92H455.758V1.53C453.267 0.989999 450.756 0.48 448.246 0V104.92H401.219C375.33 104.92 350.502 94.1452 332.196 74.9659C313.889 55.7865 303.605 29.7738 303.605 2.65012C301.085 3.22012 298.585 3.83003 296.084 4.48003V104.92H257.781L251.834 18.89C224.169 30.0063 197.904 44.6248 173.625 62.42C173.205 62.72 172.785 63.03 172.374 63.33C170.265 64.88 168.184 66.46 166.113 68.06V412.25H278.999L277.004 383.3L266.027 224.35H487.074L476.098 383.3L474.103 412.25H585.738V58.8C584.077 57.62 582.407 56.46 580.727 55.32ZM296.084 198.1H264.214L258.325 112.8H296.084V198.1ZM448.246 198.1H394.719V196.41C394.719 195.598 394.566 194.793 394.269 194.043C393.972 193.292 393.537 192.61 392.988 192.036C392.44 191.462 391.788 191.007 391.071 190.697C390.355 190.388 389.587 190.229 388.811 190.23H365.541C364.766 190.23 363.999 190.389 363.283 190.7C362.567 191.01 361.917 191.465 361.369 192.039C360.822 192.613 360.387 193.295 360.091 194.045C359.794 194.795 359.642 195.598 359.642 196.41V198.1H303.605V112.8H448.246V198.1ZM455.758 198.1V112.8H494.786L488.897 198.1H455.758Z" fill="#3F3D56"/>
<path d="M-6.10352e-05 434.291C8.29171 444.584 17.2602 454.258 26.8398 463.241L724.16 464.241C733.74 455.258 742.708 445.584 751 435.291L-6.10352e-05 434.291Z" fill="#3F3D56"/>
<path d="M472.875 341.591V427.295C472.876 428.387 473.291 429.435 474.028 430.207C474.765 430.979 475.765 431.414 476.807 431.414H598.03C599.072 431.414 600.072 430.979 600.809 430.207C601.546 429.435 601.96 428.387 601.961 427.295V341.591C601.959 340.5 601.544 339.454 600.807 338.683C600.07 337.912 599.071 337.478 598.03 337.477H476.807C475.765 337.478 474.767 337.912 474.03 338.683C473.293 339.454 472.878 340.5 472.875 341.591Z" fill="#3F3D56"/>
<path d="M475.719 342.658V426.238C475.72 426.822 475.942 427.381 476.336 427.794C476.73 428.206 477.263 428.438 477.82 428.439H597.02C597.577 428.438 598.111 428.206 598.505 427.794C598.899 427.381 599.121 426.822 599.122 426.238V342.658C599.122 342.073 598.9 341.513 598.506 341.099C598.113 340.686 597.578 340.453 597.02 340.452H477.82C477.263 340.453 476.728 340.686 476.334 341.099C475.941 341.513 475.719 342.073 475.719 342.658Z" fill="#1BDF97"/>
<path d="M470.34 444.01C470.562 444.301 470.845 444.537 471.166 444.698C471.487 444.859 471.839 444.942 472.195 444.94H601.996C602.351 444.939 602.702 444.856 603.022 444.696C603.342 444.535 603.625 444.302 603.848 444.014C604.072 443.725 604.231 443.387 604.315 443.026C604.398 442.664 604.404 442.288 604.331 441.924L602.316 431.897C602.232 431.488 602.053 431.107 601.793 430.79C601.533 430.472 601.202 430.228 600.829 430.079C600.559 429.968 600.271 429.911 599.981 429.911H474.202C473.912 429.911 473.625 429.968 473.355 430.079C472.982 430.228 472.65 430.472 472.39 430.79C472.131 431.107 471.951 431.488 471.867 431.897L469.853 441.924C469.781 442.288 469.787 442.664 469.872 443.025C469.956 443.385 470.116 443.722 470.34 444.01Z" fill="#2F2E41"/>
<path d="M595.528 434.23H598.593C598.851 434.23 599.059 434.012 599.059 433.742V432.206C599.059 431.936 598.851 431.717 598.593 431.717H595.528C595.27 431.717 595.062 431.936 595.062 432.206V433.742C595.062 434.012 595.27 434.23 595.528 434.23Z" fill="#3F3D56"/>
<path d="M587.532 434.23H590.598C590.855 434.23 591.064 434.012 591.064 433.742V432.206C591.064 431.936 590.855 431.717 590.598 431.717H587.532C587.275 431.717 587.066 431.936 587.066 432.206V433.742C587.066 434.012 587.275 434.23 587.532 434.23Z" fill="#3F3D56"/>
<path d="M579.536 434.23H582.602C582.86 434.23 583.068 434.012 583.068 433.742V432.206C583.068 431.936 582.86 431.717 582.602 431.717H579.536C579.279 431.717 579.07 431.936 579.07 432.206V433.742C579.07 434.012 579.279 434.23 579.536 434.23Z" fill="#3F3D56"/>
<path d="M571.541 434.23H574.607C574.864 434.23 575.073 434.012 575.073 433.742V432.206C575.073 431.936 574.864 431.717 574.607 431.717H571.541C571.283 431.717 571.075 431.936 571.075 432.206V433.742C571.075 434.012 571.283 434.23 571.541 434.23Z" fill="#3F3D56"/>
<path d="M563.545 434.23H566.611C566.868 434.23 567.077 434.012 567.077 433.742V432.206C567.077 431.936 566.868 431.717 566.611 431.717H563.545C563.288 431.717 563.079 431.936 563.079 432.206V433.742C563.079 434.012 563.288 434.23 563.545 434.23Z" fill="#3F3D56"/>
<path d="M555.549 434.23H558.615C558.873 434.23 559.081 434.012 559.081 433.742V432.206C559.081 431.936 558.873 431.717 558.615 431.717H555.549C555.292 431.717 555.084 431.936 555.084 432.206V433.742C555.084 434.012 555.292 434.23 555.549 434.23Z" fill="#3F3D56"/>
<path d="M547.554 434.23H550.62C550.877 434.23 551.086 434.012 551.086 433.742V432.206C551.086 431.936 550.877 431.717 550.62 431.717H547.554C547.296 431.717 547.088 431.936 547.088 432.206V433.742C547.088 434.012 547.296 434.23 547.554 434.23Z" fill="#3F3D56"/>
<path d="M539.558 434.23H542.624C542.881 434.23 543.09 434.012 543.09 433.742V432.206C543.09 431.936 542.881 431.717 542.624 431.717H539.558C539.301 431.717 539.092 431.936 539.092 432.206V433.742C539.092 434.012 539.301 434.23 539.558 434.23Z" fill="#3F3D56"/>
<path d="M531.563 434.23H534.628C534.886 434.23 535.094 434.012 535.094 433.742V432.206C535.094 431.936 534.886 431.717 534.628 431.717H531.563C531.305 431.717 531.097 431.936 531.097 432.206V433.742C531.097 434.012 531.305 434.23 531.563 434.23Z" fill="#3F3D56"/>
<path d="M523.567 434.23H526.633C526.89 434.23 527.099 434.012 527.099 433.742V432.206C527.099 431.936 526.89 431.717 526.633 431.717H523.567C523.31 431.717 523.101 431.936 523.101 432.206V433.742C523.101 434.012 523.31 434.23 523.567 434.23Z" fill="#3F3D56"/>
<path d="M515.571 434.23H518.637C518.894 434.23 519.103 434.012 519.103 433.742V432.206C519.103 431.936 518.894 431.717 518.637 431.717H515.571C515.314 431.717 515.105 431.936 515.105 432.206V433.742C515.105 434.012 515.314 434.23 515.571 434.23Z" fill="#3F3D56"/>
<path d="M507.576 434.23H510.642C510.899 434.23 511.108 434.012 511.108 433.742V432.206C511.108 431.936 510.899 431.717 510.642 431.717H507.576C507.318 431.717 507.11 431.936 507.11 432.206V433.742C507.11 434.012 507.318 434.23 507.576 434.23Z" fill="#3F3D56"/>
<path d="M499.58 434.23H502.646C502.903 434.23 503.112 434.012 503.112 433.742V432.206C503.112 431.936 502.903 431.717 502.646 431.717H499.58C499.323 431.717 499.114 431.936 499.114 432.206V433.742C499.114 434.012 499.323 434.23 499.58 434.23Z" fill="#3F3D56"/>
<path d="M491.584 434.23H494.65C494.908 434.23 495.116 434.012 495.116 433.742V432.206C495.116 431.936 494.908 431.717 494.65 431.717H491.584C491.327 431.717 491.118 431.936 491.118 432.206V433.742C491.118 434.012 491.327 434.23 491.584 434.23Z" fill="#3F3D56"/>
<path d="M483.589 434.23H486.655C486.912 434.23 487.121 434.012 487.121 433.742V432.206C487.121 431.936 486.912 431.717 486.655 431.717H483.589C483.331 431.717 483.123 431.936 483.123 432.206V433.742C483.123 434.012 483.331 434.23 483.589 434.23Z" fill="#3F3D56"/>
<path d="M475.593 434.23H478.659C478.916 434.23 479.125 434.012 479.125 433.742V432.206C479.125 431.936 478.916 431.717 478.659 431.717H475.593C475.336 431.717 475.127 431.936 475.127 432.206V433.742C475.127 434.012 475.336 434.23 475.593 434.23Z" fill="#3F3D56"/>
<path d="M595.622 438.419H598.688C598.945 438.419 599.154 438.2 599.154 437.931V436.394C599.154 436.124 598.945 435.906 598.688 435.906H595.622C595.365 435.906 595.156 436.124 595.156 436.394V437.931C595.156 438.2 595.365 438.419 595.622 438.419Z" fill="#3F3D56"/>
<path d="M587.626 438.419H590.692C590.95 438.419 591.158 438.2 591.158 437.931V436.394C591.158 436.124 590.95 435.906 590.692 435.906H587.626C587.369 435.906 587.16 436.124 587.16 436.394V437.931C587.16 438.2 587.369 438.419 587.626 438.419Z" fill="#3F3D56"/>
<path d="M579.631 438.419H582.697C582.954 438.419 583.163 438.2 583.163 437.931V436.394C583.163 436.124 582.954 435.906 582.697 435.906H579.631C579.373 435.906 579.165 436.124 579.165 436.394V437.931C579.165 438.2 579.373 438.419 579.631 438.419Z" fill="#3F3D56"/>
<path d="M571.635 438.419H574.701C574.958 438.419 575.167 438.2 575.167 437.931V436.394C575.167 436.124 574.958 435.906 574.701 435.906H571.635C571.378 435.906 571.169 436.124 571.169 436.394V437.931C571.169 438.2 571.378 438.419 571.635 438.419Z" fill="#3F3D56"/>
<path d="M563.639 438.419H566.705C566.963 438.419 567.171 438.2 567.171 437.931V436.394C567.171 436.124 566.963 435.906 566.705 435.906H563.639C563.382 435.906 563.173 436.124 563.173 436.394V437.931C563.173 438.2 563.382 438.419 563.639 438.419Z" fill="#3F3D56"/>
<path d="M555.644 438.419H558.71C558.967 438.419 559.176 438.2 559.176 437.931V436.394C559.176 436.124 558.967 435.906 558.71 435.906H555.644C555.386 435.906 555.178 436.124 555.178 436.394V437.931C555.178 438.2 555.386 438.419 555.644 438.419Z" fill="#3F3D56"/>
<path d="M547.648 438.419H550.714C550.972 438.419 551.18 438.2 551.18 437.931V436.394C551.18 436.124 550.972 435.906 550.714 435.906H547.648C547.391 435.906 547.182 436.124 547.182 436.394V437.931C547.182 438.2 547.391 438.419 547.648 438.419Z" fill="#3F3D56"/>
<path d="M539.653 438.419H542.718C542.976 438.419 543.184 438.2 543.184 437.931V436.394C543.184 436.124 542.976 435.906 542.718 435.906H539.653C539.395 435.906 539.187 436.124 539.187 436.394V437.931C539.187 438.2 539.395 438.419 539.653 438.419Z" fill="#3F3D56"/>
<path d="M531.657 438.419H534.723C534.98 438.419 535.189 438.2 535.189 437.931V436.394C535.189 436.124 534.98 435.906 534.723 435.906H531.657C531.4 435.906 531.191 436.124 531.191 436.394V437.931C531.191 438.2 531.4 438.419 531.657 438.419Z" fill="#3F3D56"/>
<path d="M523.661 438.419H526.727C526.985 438.419 527.193 438.2 527.193 437.931V436.394C527.193 436.124 526.985 435.906 526.727 435.906H523.661C523.404 435.906 523.195 436.124 523.195 436.394V437.931C523.195 438.2 523.404 438.419 523.661 438.419Z" fill="#3F3D56"/>
<path d="M515.666 438.419H518.732C518.989 438.419 519.198 438.2 519.198 437.931V436.394C519.198 436.124 518.989 435.906 518.732 435.906H515.666C515.408 435.906 515.2 436.124 515.2 436.394V437.931C515.2 438.2 515.408 438.419 515.666 438.419Z" fill="#3F3D56"/>
<path d="M507.67 438.419H510.736C510.993 438.419 511.202 438.2 511.202 437.931V436.394C511.202 436.124 510.993 435.906 510.736 435.906H507.67C507.413 435.906 507.204 436.124 507.204 436.394V437.931C507.204 438.2 507.413 438.419 507.67 438.419Z" fill="#3F3D56"/>
<path d="M499.674 438.419H502.74C502.998 438.419 503.206 438.2 503.206 437.931V436.394C503.206 436.124 502.998 435.906 502.74 435.906H499.674C499.417 435.906 499.209 436.124 499.209 436.394V437.931C499.209 438.2 499.417 438.419 499.674 438.419Z" fill="#3F3D56"/>
<path d="M491.679 438.419H494.745C495.002 438.419 495.211 438.2 495.211 437.931V436.394C495.211 436.124 495.002 435.906 494.745 435.906H491.679C491.421 435.906 491.213 436.124 491.213 436.394V437.931C491.213 438.2 491.421 438.419 491.679 438.419Z" fill="#3F3D56"/>
<path d="M483.683 438.419H486.749C487.006 438.419 487.215 438.2 487.215 437.931V436.394C487.215 436.124 487.006 435.906 486.749 435.906H483.683C483.426 435.906 483.217 436.124 483.217 436.394V437.931C483.217 438.2 483.426 438.419 483.683 438.419Z" fill="#3F3D56"/>
<path d="M475.688 438.419H478.753C479.011 438.419 479.219 438.2 479.219 437.931V436.394C479.219 436.124 479.011 435.906 478.753 435.906H475.688C475.43 435.906 475.222 436.124 475.222 436.394V437.931C475.222 438.2 475.43 438.419 475.688 438.419Z" fill="#3F3D56"/>
<path d="M529.258 443.445H560.309C560.566 443.445 560.775 443.226 560.775 442.957V441.42C560.775 441.151 560.566 440.932 560.309 440.932H529.258C529.001 440.932 528.792 441.151 528.792 441.42V442.957C528.792 443.226 529.001 443.445 529.258 443.445Z" fill="#3F3D56"/>
<path d="M496.361 358.737H493.647C492.824 358.737 492.157 359.436 492.157 360.298C492.157 361.16 492.824 361.859 493.647 361.859H496.361C497.184 361.859 497.851 361.16 497.851 360.298C497.851 359.436 497.184 358.737 496.361 358.737Z" fill="white"/>
<path d="M527.404 358.737H524.689C523.866 358.737 523.199 359.436 523.199 360.298C523.199 361.16 523.866 361.859 524.689 361.859H527.404C528.227 361.859 528.894 361.16 528.894 360.298C528.894 359.436 528.227 358.737 527.404 358.737Z" fill="white"/>
<path d="M536.199 358.737H533.485C532.662 358.737 531.995 359.436 531.995 360.298C531.995 361.16 532.662 361.859 533.485 361.859H536.199C537.022 361.859 537.689 361.16 537.689 360.298C537.689 359.436 537.022 358.737 536.199 358.737Z" fill="white"/>
<path d="M518.96 358.477H502.091C501.268 358.477 500.601 359.176 500.601 360.038C500.601 360.9 501.268 361.599 502.091 361.599H518.96C519.783 361.599 520.45 360.9 520.45 360.038C520.45 359.176 519.783 358.477 518.96 358.477Z" fill="white"/>
<path d="M560.35 358.477H543.481C542.658 358.477 541.99 359.176 541.99 360.038C541.99 360.9 542.658 361.599 543.481 361.599H560.35C561.173 361.599 561.84 360.9 561.84 360.038C561.84 359.176 561.173 358.477 560.35 358.477Z" fill="white"/>
<path d="M504.639 365.784H501.925C501.102 365.784 500.435 366.483 500.435 367.345C500.435 368.207 501.102 368.906 501.925 368.906H504.639C505.462 368.906 506.129 368.207 506.129 367.345C506.129 366.483 505.462 365.784 504.639 365.784Z" fill="white"/>
<path d="M535.682 365.784H532.967C532.144 365.784 531.477 366.483 531.477 367.345C531.477 368.207 532.144 368.906 532.967 368.906H535.682C536.504 368.906 537.172 368.207 537.172 367.345C537.172 366.483 536.504 365.784 535.682 365.784Z" fill="white"/>
<path d="M544.477 365.784H541.763C540.94 365.784 540.273 366.483 540.273 367.345C540.273 368.207 540.94 368.906 541.763 368.906H544.477C545.3 368.906 545.967 368.207 545.967 367.345C545.967 366.483 545.3 365.784 544.477 365.784Z" fill="white"/>
<path d="M527.238 365.523H510.369C509.546 365.523 508.879 366.222 508.879 367.085C508.879 367.947 509.546 368.646 510.369 368.646H527.238C528.061 368.646 528.728 367.947 528.728 367.085C528.728 366.222 528.061 365.523 527.238 365.523Z" fill="white"/>
<path d="M568.628 365.523H551.758C550.936 365.523 550.268 366.222 550.268 367.085C550.268 367.947 550.936 368.646 551.758 368.646H568.628C569.451 368.646 570.118 367.947 570.118 367.085C570.118 366.222 569.451 365.523 568.628 365.523Z" fill="white"/>
<path d="M512.917 372.83H510.203C509.38 372.83 508.713 373.529 508.713 374.391C508.713 375.254 509.38 375.952 510.203 375.952H512.917C513.74 375.952 514.407 375.254 514.407 374.391C514.407 373.529 513.74 372.83 512.917 372.83Z" fill="white"/>
<path d="M543.96 372.83H541.245C540.422 372.83 539.755 373.529 539.755 374.391C539.755 375.254 540.422 375.952 541.245 375.952H543.96C544.782 375.952 545.45 375.254 545.45 374.391C545.45 373.529 544.782 372.83 543.96 372.83Z" fill="white"/>
<path d="M552.755 372.83H550.041C549.218 372.83 548.551 373.529 548.551 374.391C548.551 375.254 549.218 375.952 550.041 375.952H552.755C553.578 375.952 554.245 375.254 554.245 374.391C554.245 373.529 553.578 372.83 552.755 372.83Z" fill="white"/>
<path d="M535.516 372.57H518.647C517.824 372.57 517.157 373.269 517.157 374.131C517.157 374.993 517.824 375.692 518.647 375.692H535.516C536.339 375.692 537.006 374.993 537.006 374.131C537.006 373.269 536.339 372.57 535.516 372.57Z" fill="white"/>
<path d="M576.906 372.57H560.036C559.214 372.57 558.546 373.269 558.546 374.131C558.546 374.993 559.214 375.692 560.036 375.692H576.906C577.729 375.692 578.396 374.993 578.396 374.131C578.396 373.269 577.729 372.57 576.906 372.57Z" fill="white"/>
<path d="M521.195 379.877H518.481C517.658 379.877 516.991 380.576 516.991 381.438C516.991 382.3 517.658 382.999 518.481 382.999H521.195C522.018 382.999 522.685 382.3 522.685 381.438C522.685 380.576 522.018 379.877 521.195 379.877Z" fill="white"/>
<path d="M552.238 379.877H549.523C548.7 379.877 548.033 380.576 548.033 381.438C548.033 382.3 548.7 382.999 549.523 382.999H552.238C553.06 382.999 553.728 382.3 553.728 381.438C553.728 380.576 553.06 379.877 552.238 379.877Z" fill="white"/>
<path d="M561.033 379.877H558.319C557.496 379.877 556.829 380.576 556.829 381.438C556.829 382.3 557.496 382.999 558.319 382.999H561.033C561.856 382.999 562.523 382.3 562.523 381.438C562.523 380.576 561.856 379.877 561.033 379.877Z" fill="white"/>
<path d="M543.794 379.617H526.925C526.102 379.617 525.435 380.316 525.435 381.178C525.435 382.04 526.102 382.739 526.925 382.739H543.794C544.617 382.739 545.284 382.04 545.284 381.178C545.284 380.316 544.617 379.617 543.794 379.617Z" fill="white"/>
<path d="M527.404 407.897H524.689C523.866 407.897 523.199 408.596 523.199 409.459C523.199 410.321 523.866 411.02 524.689 411.02H527.404C528.227 411.02 528.894 410.321 528.894 409.459C528.894 408.596 528.227 407.897 527.404 407.897Z" fill="white"/>
<path d="M536.199 407.897H533.485C532.662 407.897 531.995 408.596 531.995 409.459C531.995 410.321 532.662 411.02 533.485 411.02H536.199C537.022 411.02 537.689 410.321 537.689 409.459C537.689 408.596 537.022 407.897 536.199 407.897Z" fill="white"/>
<path d="M560.35 408.158H543.481C542.658 408.158 541.99 408.857 541.99 409.719C541.99 410.581 542.658 411.28 543.481 411.28H560.35C561.173 411.28 561.84 410.581 561.84 409.719C561.84 408.857 561.173 408.158 560.35 408.158Z" fill="white"/>
<path d="M496.361 407.897H493.647C492.824 407.897 492.157 408.596 492.157 409.459C492.157 410.321 492.824 411.02 493.647 411.02H496.361C497.184 411.02 497.851 410.321 497.851 409.459C497.851 408.596 497.184 407.897 496.361 407.897Z" fill="white"/>
<path d="M518.96 408.158H502.091C501.268 408.158 500.601 408.857 500.601 409.719C500.601 410.581 501.268 411.28 502.091 411.28H518.96C519.783 411.28 520.45 410.581 520.45 409.719C520.45 408.857 519.783 408.158 518.96 408.158Z" fill="white"/>
<path d="M504.639 400.851H501.925C501.102 400.851 500.435 401.55 500.435 402.412C500.435 403.274 501.102 403.973 501.925 403.973H504.639C505.462 403.973 506.129 403.274 506.129 402.412C506.129 401.55 505.462 400.851 504.639 400.851Z" fill="white"/>
<path d="M535.682 400.851H532.967C532.144 400.851 531.477 401.55 531.477 402.412C531.477 403.274 532.144 403.973 532.967 403.973H535.682C536.504 403.973 537.172 403.274 537.172 402.412C537.172 401.55 536.504 400.851 535.682 400.851Z" fill="white"/>
<path d="M544.477 400.851H541.763C540.94 400.851 540.273 401.55 540.273 402.412C540.273 403.274 540.94 403.973 541.763 403.973H544.477C545.3 403.973 545.967 403.274 545.967 402.412C545.967 401.55 545.3 400.851 544.477 400.851Z" fill="white"/>
<path d="M527.238 401.111H510.369C509.546 401.111 508.879 401.81 508.879 402.672C508.879 403.534 509.546 404.233 510.369 404.233H527.238C528.061 404.233 528.728 403.534 528.728 402.672C528.728 401.81 528.061 401.111 527.238 401.111Z" fill="white"/>
<path d="M512.917 393.804H510.203C509.38 393.804 508.713 394.503 508.713 395.365C508.713 396.227 509.38 396.926 510.203 396.926H512.917C513.74 396.926 514.407 396.227 514.407 395.365C514.407 394.503 513.74 393.804 512.917 393.804Z" fill="white"/>
<path d="M543.96 393.804H541.245C540.422 393.804 539.755 394.503 539.755 395.365C539.755 396.227 540.422 396.926 541.245 396.926H543.96C544.782 396.926 545.45 396.227 545.45 395.365C545.45 394.503 544.782 393.804 543.96 393.804Z" fill="white"/>
<path d="M552.755 393.804H550.041C549.218 393.804 548.551 394.503 548.551 395.365C548.551 396.227 549.218 396.926 550.041 396.926H552.755C553.578 396.926 554.245 396.227 554.245 395.365C554.245 394.503 553.578 393.804 552.755 393.804Z" fill="white"/>
<path d="M535.516 394.064H518.647C517.824 394.064 517.157 394.763 517.157 395.626C517.157 396.488 517.824 397.187 518.647 397.187H535.516C536.339 397.187 537.006 396.488 537.006 395.626C537.006 394.763 536.339 394.064 535.516 394.064Z" fill="white"/>
<path d="M521.195 386.758H518.481C517.658 386.758 516.991 387.457 516.991 388.319C516.991 389.181 517.658 389.88 518.481 389.88H521.195C522.018 389.88 522.685 389.181 522.685 388.319C522.685 387.457 522.018 386.758 521.195 386.758Z" fill="white"/>
<path d="M552.238 386.758H549.523C548.7 386.758 548.033 387.457 548.033 388.319C548.033 389.181 548.7 389.88 549.523 389.88H552.238C553.06 389.88 553.728 389.181 553.728 388.319C553.728 387.457 553.06 386.758 552.238 386.758Z" fill="white"/>
<path d="M561.033 386.758H558.319C557.496 386.758 556.829 387.457 556.829 388.319C556.829 389.181 557.496 389.88 558.319 389.88H561.033C561.856 389.88 562.523 389.181 562.523 388.319C562.523 387.457 561.856 386.758 561.033 386.758Z" fill="white"/>
<path d="M543.794 387.018H526.925C526.102 387.018 525.435 387.717 525.435 388.579C525.435 389.441 526.102 390.14 526.925 390.14H543.794C544.617 390.14 545.284 389.441 545.284 388.579C545.284 387.717 544.617 387.018 543.794 387.018Z" fill="white"/>
<path d="M481.931 490.482L469.189 469.38L509.184 435.977L525.691 416.816C527.836 414.327 530.567 412.471 533.611 411.433C536.655 410.396 539.905 410.214 543.037 410.905C546.169 411.596 549.073 413.136 551.459 415.372C553.845 417.607 555.63 420.46 556.634 423.644C558.122 428.363 557.802 433.502 555.741 437.979C553.681 442.455 550.041 445.917 545.59 447.635L519.486 457.71L481.931 490.482Z" fill="#FFB6B6"/>
<path d="M182.963 337.481V440.041H251.542V337.481C251.543 336.743 251.319 336.024 250.901 335.43C250.484 334.837 249.896 334.398 249.223 334.181C248.906 334.071 248.574 334.017 248.24 334.021H186.275C185.841 334.02 185.411 334.109 185.009 334.282C184.607 334.456 184.242 334.71 183.935 335.032C183.627 335.353 183.383 335.735 183.216 336.155C183.05 336.575 182.964 337.026 182.963 337.481ZM209.727 372.721C209.745 370.699 210.524 368.766 211.895 367.343C213.266 365.92 215.118 365.121 217.048 365.121C218.977 365.121 220.829 365.92 222.2 367.343C223.571 368.766 224.35 370.699 224.368 372.721V384.621C224.359 386.648 223.583 388.589 222.211 390.019C220.839 391.449 218.983 392.252 217.048 392.252C215.112 392.252 213.256 391.449 211.884 390.019C210.512 388.589 209.737 386.648 209.727 384.621V372.721Z" fill="#2F2E41"/>
<path d="M182.753 436.761V446.651C182.755 447.163 182.949 447.654 183.294 448.017C183.639 448.381 184.107 448.587 184.595 448.591H249.91C250.4 448.588 250.868 448.383 251.213 448.019C251.559 447.656 251.752 447.164 251.752 446.651V436.761H182.753Z" fill="#3F3D56"/>
<path d="M75.079 182.961V370.221C75.0808 372.607 75.9864 374.895 77.597 376.583C79.2076 378.27 81.3915 379.219 83.6693 379.221H348.536C350.814 379.219 352.998 378.27 354.608 376.583C356.219 374.895 357.125 372.607 357.126 370.221V182.961C357.121 180.577 356.214 178.292 354.604 176.607C352.994 174.922 350.812 173.974 348.536 173.971H83.6693C81.3935 173.974 79.2117 174.922 77.6016 176.607C75.9915 178.292 75.0844 180.577 75.079 182.961Z" fill="#3F3D56"/>
<path d="M81.2926 185.291V367.911C81.2947 369.186 81.7791 370.408 82.6396 371.309C83.5001 372.211 84.6667 372.719 85.8836 372.721H346.331C347.548 372.719 348.715 372.211 349.575 371.309C350.436 370.408 350.92 369.186 350.922 367.911V185.291C350.922 184.014 350.439 182.79 349.578 181.886C348.717 180.983 347.55 180.473 346.331 180.471H85.8836C84.6652 180.473 83.4975 180.983 82.6368 181.886C81.7762 182.79 81.2927 184.014 81.2926 185.291Z" fill="white"/>
<path d="M129.627 447.921C129.892 448.269 130.229 448.55 130.613 448.742C130.996 448.934 131.417 449.033 131.842 449.031H286.791C287.215 449.03 287.633 448.931 288.016 448.74C288.398 448.548 288.735 448.27 289.002 447.925C289.269 447.581 289.459 447.178 289.559 446.746C289.659 446.315 289.665 445.865 289.578 445.431L287.173 433.461C287.073 432.973 286.859 432.518 286.549 432.139C286.238 431.76 285.843 431.469 285.398 431.291C285.075 431.158 284.732 431.09 284.386 431.091H134.237C133.891 431.09 133.548 431.158 133.226 431.291C132.78 431.469 132.385 431.76 132.075 432.139C131.765 432.518 131.55 432.973 131.45 433.461L129.045 445.431C128.959 445.865 128.967 446.314 129.068 446.745C129.169 447.175 129.36 447.577 129.627 447.921Z" fill="#2F2E41"/>
<path d="M337.879 205.628H94.1791C93.9258 205.622 93.6848 205.512 93.5076 205.322C93.3304 205.133 93.2313 204.878 93.2313 204.612C93.2313 204.347 93.3304 204.092 93.5076 203.902C93.6848 203.712 93.9258 203.603 94.1791 203.597H337.879C338.132 203.603 338.373 203.712 338.55 203.902C338.728 204.092 338.827 204.347 338.827 204.612C338.827 204.878 338.728 205.133 338.55 205.322C338.373 205.512 338.132 205.622 337.879 205.628Z" fill="#3F3D56"/>
<path d="M110.768 198.413C113.905 198.413 116.448 195.689 116.448 192.33C116.448 188.97 113.905 186.247 110.768 186.247C107.631 186.247 105.089 188.97 105.089 192.33C105.089 195.689 107.631 198.413 110.768 198.413Z" fill="#3F3D56"/>
<path d="M130.388 198.413C133.525 198.413 136.068 195.689 136.068 192.33C136.068 188.97 133.525 186.247 130.388 186.247C127.252 186.247 124.709 188.97 124.709 192.33C124.709 195.689 127.252 198.413 130.388 198.413Z" fill="#3F3D56"/>
<path d="M150.009 198.413C153.145 198.413 155.688 195.689 155.688 192.33C155.688 188.97 153.145 186.247 150.009 186.247C146.872 186.247 144.329 188.97 144.329 192.33C144.329 195.689 146.872 198.413 150.009 198.413Z" fill="#3F3D56"/>
<path d="M326.064 187.751H312.129C311.853 187.758 311.591 187.877 311.399 188.084C311.206 188.29 311.099 188.567 311.099 188.856C311.099 189.145 311.206 189.422 311.399 189.628C311.591 189.835 311.853 189.954 312.129 189.961H326.064C326.341 189.957 326.606 189.839 326.801 189.632C326.995 189.425 327.104 189.146 327.104 188.856C327.104 188.566 326.995 188.287 326.801 188.08C326.606 187.873 326.341 187.755 326.064 187.751Z" fill="#3F3D56"/>
<path d="M326.064 191.901H312.129C311.853 191.907 311.591 192.027 311.398 192.233C311.205 192.44 311.097 192.717 311.097 193.006C311.097 193.295 311.205 193.572 311.398 193.779C311.591 193.985 311.853 194.104 312.129 194.111H326.064C326.342 194.107 326.607 193.989 326.802 193.783C326.997 193.576 327.106 193.297 327.106 193.006C327.106 192.715 326.997 192.436 326.802 192.229C326.607 192.022 326.342 191.904 326.064 191.901Z" fill="#3F3D56"/>
<path d="M326.064 196.051H312.129C311.853 196.058 311.591 196.177 311.399 196.383C311.206 196.59 311.099 196.867 311.099 197.156C311.099 197.444 311.206 197.722 311.399 197.928C311.591 198.135 311.853 198.254 312.129 198.261H326.064C326.341 198.257 326.606 198.138 326.801 197.932C326.995 197.725 327.104 197.446 327.104 197.156C327.104 196.865 326.995 196.587 326.801 196.38C326.606 196.173 326.341 196.055 326.064 196.051Z" fill="#3F3D56"/>
<path d="M662.02 441.101C662.44 442.384 663.238 443.494 664.298 444.272C665.359 445.05 666.627 445.457 667.921 445.432L693.207 444.75C694.511 444.724 695.772 444.256 696.801 443.416C697.83 442.577 698.572 441.411 698.916 440.093L702.494 400.006C703.764 400.609 705.146 400.906 706.539 400.877C707.75 400.845 708.942 400.564 710.049 400.049C711.156 399.534 712.155 398.796 712.99 397.877C713.824 396.957 714.478 395.875 714.913 394.691C715.348 393.507 715.557 392.245 715.526 390.976C715.496 389.708 715.227 388.458 714.736 387.299C714.245 386.139 713.54 385.092 712.663 384.218C711.785 383.344 710.752 382.659 709.622 382.203C708.492 381.747 707.287 381.529 706.076 381.56C705.519 381.559 704.964 381.619 704.419 381.741C703.827 381.07 703.107 380.536 702.306 380.173C701.504 379.811 700.64 379.629 699.767 379.638L660.872 380.69C660.549 380.703 660.228 380.745 659.912 380.815C659.059 380.982 658.25 381.338 657.54 381.859C656.829 382.381 656.233 383.056 655.793 383.839C655.352 384.622 655.076 385.495 654.985 386.399C654.893 387.303 654.987 388.217 655.261 389.08L662.02 441.101ZM703.228 397.284L705.774 387.732C706.064 386.628 706.07 385.464 705.793 384.357C705.917 384.357 706.026 384.295 706.15 384.295C707.895 384.257 709.584 384.946 710.846 386.211C712.108 387.476 712.839 389.213 712.88 391.042C712.921 392.871 712.268 394.643 711.064 395.968C709.86 397.293 708.204 398.064 706.458 398.112C705.33 398.149 704.213 397.863 703.228 397.284Z" fill="#2F2E41"/>
<path d="M659.912 380.815C660.741 385.779 670.057 389.269 681.26 388.662C691.561 388.165 699.984 384.375 701.527 379.884C700.956 379.707 700.362 379.624 699.767 379.638L660.872 380.69C660.549 380.703 660.228 380.744 659.912 380.815Z" fill="#3F3D56"/>
<path d="M683.313 419.073C683.364 419.059 683.413 419.037 683.457 419.007L688.948 415.241C689.015 415.196 689.069 415.134 689.107 415.061C689.145 414.988 689.164 414.906 689.164 414.823C689.165 414.74 689.145 414.658 689.107 414.585C689.069 414.512 689.015 414.45 688.948 414.405L683.241 410.488C683.189 410.452 683.13 410.427 683.068 410.414C683.006 410.402 682.943 410.402 682.882 410.415C682.82 410.429 682.762 410.454 682.71 410.491C682.658 410.528 682.613 410.576 682.579 410.631C682.544 410.686 682.521 410.747 682.509 410.812C682.497 410.877 682.498 410.943 682.511 411.008C682.524 411.072 682.549 411.133 682.584 411.187C682.62 411.242 682.665 411.288 682.718 411.324L687.816 414.822L682.935 418.17C682.84 418.235 682.77 418.333 682.738 418.446C682.706 418.559 682.713 418.681 682.759 418.789C682.804 418.898 682.885 418.986 682.986 419.038C683.088 419.089 683.203 419.102 683.313 419.073Z" fill="#0185FF"/>
<path d="M674.64 419.492C674.732 419.468 674.815 419.415 674.878 419.341C674.942 419.266 674.983 419.174 674.995 419.075C675.008 418.977 674.993 418.876 674.951 418.787C674.909 418.698 674.843 418.623 674.76 418.574L669.698 415.533L674.591 411.726C674.641 411.687 674.683 411.638 674.716 411.582C674.748 411.525 674.769 411.463 674.778 411.398C674.787 411.333 674.784 411.267 674.769 411.203C674.753 411.14 674.726 411.08 674.689 411.027C674.652 410.974 674.605 410.93 674.551 410.896C674.497 410.863 674.438 410.84 674.376 410.831C674.314 410.821 674.251 410.825 674.19 410.841C674.129 410.857 674.072 410.885 674.022 410.924L668.544 415.187C668.481 415.236 668.43 415.301 668.396 415.377C668.363 415.452 668.348 415.535 668.352 415.617C668.357 415.7 668.381 415.781 668.423 415.851C668.465 415.922 668.523 415.98 668.591 416.021L674.285 419.441C674.393 419.506 674.52 419.524 674.64 419.492Z" fill="#0185FF"/>
<path d="M682.767 422.373C682.813 422.361 682.857 422.341 682.897 422.315C682.951 422.281 682.998 422.236 683.035 422.183C683.072 422.13 683.098 422.07 683.113 422.006C683.128 421.942 683.131 421.876 683.121 421.811C683.112 421.746 683.09 421.684 683.057 421.628L675.273 408.22C675.207 408.107 675.101 408.026 674.978 407.994C674.855 407.963 674.725 407.985 674.617 408.054C674.509 408.123 674.432 408.234 674.402 408.362C674.372 408.491 674.392 408.627 674.458 408.74L682.242 422.149C682.295 422.24 682.375 422.311 682.469 422.351C682.563 422.392 682.668 422.399 682.767 422.373Z" fill="#0185FF"/>
<path d="M245.147 260.827H202.968C201.247 260.827 199.852 262.289 199.852 264.091V268.409C199.852 270.211 201.247 271.673 202.968 271.673H245.147C246.868 271.673 248.262 270.211 248.262 268.409V264.091C248.262 262.289 246.868 260.827 245.147 260.827Z" fill="#0185FF"/>
<path d="M269.733 282.519H178.382C176.661 282.519 175.266 283.98 175.266 285.783V290.1C175.266 291.903 176.661 293.364 178.382 293.364H269.733C271.453 293.364 272.848 291.903 272.848 290.1V285.783C272.848 283.98 271.453 282.519 269.733 282.519Z" fill="#E6E6E6"/>
<path d="M269.733 304.21H178.382C176.661 304.21 175.266 305.671 175.266 307.474V311.792C175.266 313.594 176.661 315.056 178.382 315.056H269.733C271.453 315.056 272.848 313.594 272.848 311.792V307.474C272.848 305.671 271.453 304.21 269.733 304.21Z" fill="#E6E6E6"/>
<path d="M277.477 376.846L277.683 377.53L277.694 377.553L283.922 397.391L291.087 420.252L304.567 463.213L304.697 469.887V469.91L305.699 523.594L302.923 530.872L306.048 542.805C306.048 542.805 304.61 524.768 296.901 535.126C292.535 541.012 287.429 547.036 283.236 552.682C289.345 555.272 295.551 557.614 301.856 559.709C303.217 560.166 304.589 560.599 305.96 561.033C306.254 561.124 306.548 561.215 306.842 561.307C327.74 567.781 349.345 571.42 371.127 572.132C372.259 572.167 373.37 572.189 374.448 572.212C374.829 572.224 375.199 572.235 375.57 572.235C376.789 572.247 377.998 572.258 379.217 572.258C381.678 572.258 384.128 572.22 386.567 572.144C404.619 571.611 422.566 569.068 440.105 564.558C439.985 556.972 439.658 548.108 439.19 538.64C438.972 533.997 434.083 528.966 433.789 524.106C433.583 520.456 437.971 517.022 437.742 513.314C436.261 490.488 434.41 499.25 433.038 483.086C432.897 481.5 432.766 479.983 432.646 478.534C431.764 468.153 431.155 461.662 431.155 461.662L437.012 422.979L446.213 362.244L445.505 361.024L444.711 360.613L396.181 335.448L393.546 328.375C392.778 326.337 391.446 324.587 389.721 323.349C387.996 322.111 385.957 321.442 383.866 321.428L351.898 321.291C350.239 321.283 348.602 321.69 347.123 322.477C345.644 323.265 344.366 324.411 343.395 325.82L334.738 338.379L277.477 376.846Z" fill="#3F3D56"/>
<path d="M311.938 453.654L304.697 469.887L299.754 480.975L291.25 527.621L286.993 532.355L283.345 515.596L245.169 524.477C243.916 517.187 244.833 524.723 244.06 516.727C244.278 516.498 244.507 516.27 244.735 516.042C245.345 515.449 245.857 514.89 245.846 514.354C245.41 486.77 246.717 439.827 257.627 411.388C259.336 406.745 261.589 402.342 264.334 398.281C264.552 397.973 264.759 397.665 264.966 397.357C269.996 389.976 273.176 382.709 277.683 377.542V377.53C277.712 377.507 277.737 377.48 277.76 377.45C277.776 377.442 277.791 377.43 277.803 377.416L308.77 360.213L310.098 399.319L311.045 427.427L311.938 453.654Z" fill="#3F3D56"/>
<path d="M423.597 458.264L432.642 478.539L435.799 485.6L444.3 532.242L448.544 536.964L452.2 520.209L453.917 519.84L484.898 513.118L493.928 543.164C495.963 539.611 496.765 535.431 496.198 531.33C495.631 527.23 493.729 523.46 490.815 520.658C490.199 520.074 489.685 519.505 489.699 518.966C490.213 486.523 488.319 427.283 471.214 402.9C465.781 395.163 462.522 387.456 457.779 382.072C457.764 382.056 457.764 382.041 457.75 382.041L446.209 362.243L445.504 361.027L444.711 360.612L423.597 458.264Z" fill="#3F3D56"/>
<path d="M368.806 311.759C392.294 311.759 411.336 291.809 411.336 267.201C411.336 242.592 392.294 222.642 368.806 222.642C345.317 222.642 326.276 242.592 326.276 267.201C326.276 291.809 345.317 311.759 368.806 311.759Z" fill="#FFB6B6"/>
<path d="M426.29 236.077C425.96 235.708 425.563 235.412 425.122 235.208C424.68 235.003 424.205 234.894 423.722 234.887L424.362 233.027C424.57 232.441 424.627 231.807 424.525 231.191C424.423 230.575 424.167 229.998 423.782 229.52C423.398 229.042 422.899 228.679 422.336 228.47C421.774 228.26 421.169 228.211 420.582 228.327L418.253 228.797L418.473 227.167C418.557 226.56 418.489 225.94 418.275 225.369C418.061 224.798 417.709 224.295 417.254 223.909C416.798 223.524 416.255 223.269 415.677 223.171C415.099 223.072 414.507 223.133 413.958 223.347C413.459 223.553 412.922 223.639 412.387 223.599C411.852 223.559 411.332 223.395 410.865 223.117C410.397 222.848 409.991 222.475 409.674 222.024C409.357 221.573 409.139 221.055 409.033 220.507L408.222 216.407L408.136 216.187C404.184 209.287 396.586 204.267 387.29 202.427C379.015 200.777 370.529 201.617 362.349 202.407C359.104 202.727 355.439 203.087 352.385 205.047C349.789 206.727 347.593 210.087 348.042 213.477C339.977 210.887 331.329 216.057 327.043 222.577C321.966 230.337 321.135 240.057 321.002 247.657C320.639 265.637 324.18 280.347 331.501 291.387C332.035 292.187 332.169 293.857 333.228 294.417L333.009 294.047C334.192 294.667 335.395 295.667 334.946 296.737C333.658 299.817 342.22 306.627 348.252 308.877C359.257 312.987 373.889 312.637 384.178 311.157L384.541 308.607C388.254 308.077 390.869 307.067 391.604 305.487C392.902 304.327 394.009 303.287 394.973 302.327L394.983 302.317C395.002 302.297 395.04 302.267 395.059 302.247C399.708 297.577 400.786 294.917 401.273 290.867C401.741 286.897 400.91 282.867 400.061 279.237C417.948 282.137 393.017 259.277 409.682 254.857C409.873 254.795 410.067 254.745 410.264 254.707C410.751 254.587 411.238 254.467 411.705 254.327C413.96 253.686 416.118 252.72 418.119 251.457C422.777 248.487 424.314 244.547 426.719 240.107C427.066 239.475 427.212 238.743 427.135 238.018C427.057 237.293 426.761 236.613 426.29 236.077Z" fill="#2F2E41"/>
<path d="M519.227 461.437C519.217 463.187 519.198 465.637 519.122 468.667C519.113 469.087 519.103 469.517 519.093 469.957C518.969 475.527 518.845 480.197 518.645 485.387C518.635 485.747 518.626 486.097 518.607 486.457C518.339 493.697 517.919 502.127 517.194 515.477C515.848 540.137 513.5 518.867 511.143 527.517C511.028 527.947 510.904 528.457 510.789 529.057C510.432 531.234 509.83 533.359 508.995 535.387C507.745 536.167 506.456 536.917 505.187 537.667C501.569 539.777 497.895 541.807 494.191 543.737C492.11 544.817 490.02 545.877 487.92 546.897C487.586 547.057 487.262 547.217 486.937 547.367C476.184 552.578 465.102 557.008 453.769 560.627C451.555 561.327 449.35 562.007 447.117 562.637C444.788 563.317 442.459 563.957 440.101 564.557C422.563 569.068 404.616 571.612 386.565 572.147C384.131 572.227 381.678 572.257 379.215 572.257C377.993 572.257 376.791 572.247 375.569 572.237C375.197 572.237 374.825 572.227 374.452 572.217C373.374 572.187 372.257 572.167 371.131 572.137C349.349 571.425 327.744 567.785 306.847 561.307L305.959 561.037C304.585 560.597 303.22 560.167 301.855 559.707C295.555 557.617 289.348 555.277 283.233 552.687C278.566 550.717 273.952 548.604 269.393 546.347C269.352 546.335 269.313 546.315 269.279 546.287C268.324 545.827 267.36 545.347 266.406 544.857C266.282 544.787 266.148 544.717 266.014 544.647C262.454 542.827 258.932 540.92 255.448 538.927C252.518 531.877 248.395 530.527 245.837 524.327C245.092 522.485 244.554 520.559 244.233 518.587C244.233 518.567 244.224 518.547 244.224 518.517C244.491 522.237 243.088 511.917 244.214 518.477C244.205 518.357 244.195 518.227 244.186 518.077C244.157 517.717 244.119 517.277 244.062 516.727C240.788 483.237 240.998 444.937 239.575 413.377C239.48 411.337 239.381 409.384 239.28 407.517C239.251 406.897 239.213 406.287 239.175 405.687C239.241 405.507 239.318 405.317 239.404 405.137C239.422 405.085 239.444 405.035 239.47 404.987C239.499 404.925 239.53 404.865 239.566 404.807C239.585 404.777 239.614 404.737 239.633 404.707C239.647 404.673 239.663 404.639 239.68 404.607C239.766 404.467 239.862 404.317 239.967 404.177C240.014 404.117 240.053 404.067 240.1 404.017C240.133 403.966 240.172 403.919 240.215 403.877C240.244 403.829 240.28 403.785 240.32 403.747C240.358 403.707 240.396 403.657 240.444 403.607C240.464 403.575 240.49 403.548 240.52 403.527C240.596 403.436 240.679 403.352 240.769 403.277C241.109 402.949 241.473 402.648 241.857 402.377C241.99 402.287 242.133 402.197 242.267 402.097C243.229 401.494 244.242 400.985 245.293 400.577C245.655 400.437 246.018 400.307 246.409 400.167C246.553 400.127 246.686 400.077 246.829 400.027C247.039 399.957 247.249 399.887 247.469 399.837C248.557 399.497 249.731 399.207 251 398.937C251.153 398.907 251.315 398.877 251.478 398.837C251.707 398.787 251.945 398.747 252.184 398.707C252.509 398.647 252.843 398.587 253.177 398.527C256.011 398.057 259.228 397.707 262.779 397.477C263.113 397.457 263.447 397.437 263.781 397.417C264.172 397.397 264.564 397.377 264.964 397.357C265.299 397.337 265.642 397.327 265.986 397.317C266.32 397.297 266.663 397.287 267.017 397.277C267.981 397.247 268.973 397.217 269.985 397.197C272.868 397.137 275.903 397.157 279.091 397.227C280.57 397.267 282.078 397.307 283.624 397.377C283.73 397.377 283.825 397.387 283.92 397.387C285.266 397.437 286.621 397.497 288.015 397.577C288.989 397.627 289.972 397.677 290.955 397.737C291.881 397.797 292.816 397.857 293.761 397.927C294.496 397.967 295.231 398.027 295.975 398.077C296.605 398.127 297.235 398.177 297.865 398.217L298.724 398.277C299.192 398.317 299.66 398.347 300.137 398.397C301.187 398.487 302.237 398.577 303.306 398.667C304.365 398.767 305.444 398.867 306.522 398.967C307.601 399.067 308.689 399.177 309.777 399.287C309.892 399.297 309.997 399.307 310.102 399.317C311.094 399.427 312.087 399.527 313.089 399.637C313.318 399.657 313.557 399.677 313.786 399.707C314.741 399.807 315.716 399.925 316.68 400.033C316.976 400.066 317.27 400.098 317.567 400.132C318.322 400.219 319.067 400.293 319.828 400.387C320.83 400.507 321.851 400.617 322.844 400.757C323.617 400.847 324.39 400.937 325.163 401.037C326.375 401.187 327.607 401.347 328.838 401.517C329.305 401.577 329.773 401.637 330.241 401.707C333.753 402.167 337.304 402.677 340.912 403.207C346.381 404.017 351.936 404.897 357.529 405.847C363.132 406.797 368.767 407.8 374.433 408.857C375.865 409.127 377.297 409.397 378.738 409.677C379.387 409.807 380.036 409.937 380.685 410.067C381.792 410.277 382.899 410.497 384.006 410.717C385.114 410.937 386.221 411.157 387.328 411.387C388.645 411.657 389.972 411.927 391.289 412.197C399.965 413.997 408.594 415.917 417.012 417.927C418.396 418.257 419.78 418.597 421.155 418.927C423.904 419.597 426.627 420.277 429.325 420.967C430.069 421.147 430.804 421.337 431.539 421.527C433.372 422.007 435.205 422.487 437.008 422.977L437.323 423.067C438.65 423.407 439.948 423.757 441.246 424.117C444.31 424.957 447.323 425.807 450.285 426.667C452.251 427.237 454.195 427.814 456.117 428.397C458.99 429.267 461.806 430.147 464.545 431.037C465.223 431.257 465.9 431.477 466.569 431.687C468.573 432.337 470.549 432.997 472.467 433.657C473.994 434.177 475.483 434.707 476.953 435.237C478.423 435.767 479.864 436.297 481.277 436.827C482.184 437.167 483.081 437.527 483.978 437.867C485.267 438.367 486.536 438.867 487.777 439.367C488.159 439.517 488.531 439.677 488.903 439.827C489.142 439.937 489.371 440.027 489.6 440.127C490.049 440.317 490.507 440.497 490.946 440.687C491.394 440.867 491.833 441.057 492.273 441.257C492.702 441.437 493.141 441.627 493.561 441.817C493.991 441.997 494.411 442.187 494.831 442.387C495.184 442.537 495.527 442.697 495.861 442.857C496.539 443.167 497.217 443.477 497.875 443.797C498.2 443.957 498.524 444.107 498.849 444.267L499.593 444.627C499.698 444.687 499.803 444.737 499.908 444.787C500.147 444.907 500.395 445.037 500.634 445.157C501.187 445.427 501.731 445.717 502.266 445.987C502.982 446.367 503.679 446.747 504.347 447.117C505.024 447.497 505.683 447.877 506.313 448.247C506.418 448.307 506.513 448.367 506.618 448.427C506.762 448.507 506.905 448.597 507.048 448.677C507.535 448.967 508.002 449.267 508.47 449.557C509.386 450.147 510.255 450.727 511.066 451.307C511.248 451.437 511.419 451.567 511.601 451.687C512.202 452.137 512.775 452.577 513.309 453.027C513.309 453.037 513.309 453.037 513.319 453.037C513.5 453.177 513.672 453.327 513.844 453.467C513.987 453.607 514.14 453.727 514.283 453.867C514.779 454.317 515.237 454.747 515.657 455.187C515.798 455.323 515.932 455.466 516.058 455.617C516.114 455.665 516.165 455.719 516.211 455.777C516.402 455.977 516.573 456.177 516.736 456.377C516.761 456.404 516.783 456.434 516.803 456.467C517.032 456.747 517.242 457.027 517.442 457.307C517.538 457.447 517.643 457.587 517.728 457.727C517.843 457.897 517.957 458.077 518.053 458.247C518.139 458.387 518.215 458.537 518.292 458.677C518.494 459.037 518.667 459.415 518.807 459.807C518.914 460.072 519 460.346 519.065 460.627C519.137 460.892 519.191 461.163 519.227 461.437Z" fill="#2F2E41"/>
<path opacity="0.2" d="M519.227 461.437C519.217 463.187 519.198 465.637 519.122 468.667C519.112 469.087 519.093 469.517 519.084 469.957C518.988 474.207 518.845 479.457 518.645 485.387C518.635 485.747 518.626 486.097 518.607 486.457C518.339 493.697 517.919 502.127 517.194 515.477C515.848 540.137 513.5 518.867 511.143 527.517C504.595 523.297 497.417 518.877 489.743 514.337C488.359 513.517 486.963 512.693 485.553 511.867C470.205 502.897 453.063 493.497 435.166 484.187C434.46 483.817 433.744 483.447 433.038 483.087C392.043 461.857 347.297 441.207 311.046 427.427C304.05 424.767 297.369 422.367 291.088 420.257C277.859 415.827 266.425 412.727 257.624 411.387C248.462 409.987 242.133 410.487 239.575 413.377C239.48 411.337 239.381 409.383 239.279 407.517C239.241 406.897 239.203 406.287 239.165 405.687C239.224 405.522 239.3 405.365 239.374 405.207C239.385 405.183 239.393 405.16 239.404 405.137C239.422 405.085 239.444 405.035 239.47 404.987C239.499 404.925 239.53 404.865 239.566 404.807C239.597 404.736 239.635 404.669 239.68 404.607C239.766 404.467 239.862 404.317 239.967 404.177C240.044 404.072 240.127 403.972 240.215 403.877C240.244 403.829 240.279 403.785 240.32 403.747C240.358 403.707 240.396 403.657 240.444 403.607C240.464 403.575 240.49 403.548 240.52 403.527C240.596 403.436 240.679 403.352 240.768 403.277C241.109 402.948 241.473 402.648 241.857 402.377C241.99 402.287 242.133 402.197 242.267 402.097C243.229 401.494 244.242 400.985 245.293 400.577C245.655 400.437 246.018 400.307 246.409 400.167C246.553 400.127 246.686 400.077 246.829 400.027C247.039 399.957 247.249 399.887 247.469 399.837C248.557 399.497 249.731 399.207 251 398.937C251.382 398.857 251.783 398.777 252.184 398.707C252.508 398.647 252.843 398.587 253.177 398.527C256.011 398.057 259.228 397.707 262.779 397.477C263.113 397.457 263.447 397.437 263.781 397.417C264.172 397.397 264.563 397.377 264.964 397.357C265.298 397.337 265.642 397.327 265.986 397.317C266.32 397.297 266.663 397.287 267.017 397.277C267.981 397.247 268.973 397.217 269.985 397.197C272.867 397.147 275.903 397.167 279.091 397.237C280.57 397.267 282.078 397.317 283.624 397.387C283.72 397.387 283.825 397.397 283.92 397.397C285.266 397.437 286.631 397.507 288.015 397.577C288.989 397.627 289.972 397.677 290.955 397.737C291.881 397.797 292.816 397.857 293.761 397.927C294.496 397.967 295.231 398.027 295.975 398.077C296.605 398.127 297.235 398.177 297.865 398.217C298.619 398.277 299.373 398.337 300.137 398.397C301.187 398.487 302.237 398.577 303.306 398.667C304.365 398.767 305.444 398.867 306.522 398.967C307.601 399.067 308.689 399.177 309.777 399.287C309.891 399.297 309.996 399.307 310.101 399.317C311.094 399.427 312.087 399.527 313.089 399.637C318.644 400.227 324.361 400.917 330.241 401.707C333.753 402.177 337.31 402.68 340.912 403.217C346.381 404.027 351.936 404.907 357.529 405.847C363.132 406.797 368.767 407.8 374.433 408.857C375.865 409.127 377.296 409.397 378.738 409.677C380.494 410.017 382.25 410.363 384.006 410.717C385.114 410.937 386.221 411.157 387.328 411.387C388.645 411.657 389.972 411.927 391.289 412.197C399.965 413.997 408.594 415.917 417.012 417.927C418.396 418.257 419.78 418.597 421.155 418.927C423.904 419.597 426.627 420.277 429.325 420.967C430.069 421.157 430.804 421.347 431.539 421.537C433.381 422.017 435.204 422.497 437.008 422.977V422.987C437.113 423.007 437.218 423.037 437.323 423.067C438.641 423.417 439.948 423.767 441.246 424.127C444.31 424.967 447.323 425.813 450.285 426.667C452.251 427.247 454.199 427.817 456.117 428.397C458.99 429.277 461.806 430.157 464.545 431.037C465.223 431.257 465.9 431.477 466.569 431.687C468.573 432.347 470.539 433.003 472.467 433.657C473.994 434.177 475.483 434.707 476.953 435.237C478.423 435.767 479.864 436.297 481.277 436.827C482.193 437.167 483.091 437.517 483.978 437.857C485.276 438.357 486.536 438.857 487.777 439.367C488.159 439.517 488.531 439.677 488.903 439.827C489.6 440.107 490.278 440.397 490.946 440.687C491.394 440.867 491.834 441.057 492.273 441.257C492.702 441.437 493.141 441.627 493.561 441.817C493.991 441.997 494.411 442.187 494.831 442.387C495.184 442.537 495.527 442.697 495.861 442.857C496.539 443.167 497.217 443.477 497.875 443.797C498.2 443.957 498.524 444.107 498.849 444.267L499.593 444.627C499.698 444.687 499.803 444.737 499.908 444.787C500.72 445.187 501.502 445.587 502.266 445.987C502.982 446.367 503.679 446.747 504.347 447.117C505.139 447.557 505.893 447.987 506.618 448.427C506.761 448.507 506.905 448.597 507.048 448.677C507.535 448.967 508.002 449.267 508.47 449.557C509.386 450.147 510.255 450.727 511.066 451.307C511.868 451.887 512.612 452.457 513.309 453.027C513.309 453.037 513.309 453.037 513.319 453.037C513.653 453.317 513.977 453.597 514.283 453.867C514.779 454.317 515.237 454.747 515.657 455.187C515.798 455.322 515.932 455.466 516.058 455.617C516.114 455.665 516.165 455.718 516.211 455.777C516.411 456.007 516.612 456.237 516.803 456.467C517.032 456.747 517.242 457.027 517.442 457.307C517.538 457.447 517.643 457.587 517.728 457.727C517.843 457.897 517.958 458.077 518.053 458.247C518.139 458.387 518.215 458.537 518.292 458.677C518.494 459.037 518.667 459.415 518.807 459.807C518.911 460.073 518.998 460.347 519.065 460.627C519.137 460.892 519.191 461.163 519.227 461.437Z" fill="black"/>
</g>
<defs>
<clipPath id="clip0_22_953">
<rect width="751" height="572.258" fill="white"/>
</clipPath>
</defs>
</svg>
